<?xml version="1.0" encoding="iso-8859-1"?>
<!-- Generator: Adobe Illustrator 18.0.0, SVG Export Plug-In . SVG Version: 6.00 Build 0)  -->
<!DOCTYPE svg PUBLIC "-//W3C//DTD SVG 1.1//EN" "http://www.w3.org/Graphics/SVG/1.1/DTD/svg11.dtd">
<svg xmlns="http://www.w3.org/2000/svg" xmlns:xlink="http://www.w3.org/1999/xlink" version="1.1" id="Capa_1" x="0px" y="0px" viewBox="0 0 291.487 291.487" style="enable-background:new 0 0 291.487 291.487;" xml:space="preserve" width="512px" height="512px">
<g id="Curva_travelling">
	<path d="M222.448,258.707c-58.69-71.754-75.625-164.859-47.56-244.548c1.274-3.674,1.424-6.826,0.198-7.079   c-11.623-2.355-23.246-4.709-34.87-7.064c-1.223-0.251-4.769,2.568-7.774,6.372c-64.806,82.431-81.741,188.663-47.56,279.029   c1.562,4.178,6.537,6.794,10.954,5.892c41.21-8.348,82.419-16.696,123.629-25.043C223.887,265.363,225.166,262.008,222.448,258.707   z M155.545,66.198c-16.849-1.193-33.699-2.386-50.548-3.579c2.957-6.623,6.174-13.169,9.651-19.622   c14.833,1.548,29.666,3.096,44.499,4.644C157.703,53.779,156.503,59.969,155.545,66.198z M153.787,80.392   c-0.591,6.278-0.941,12.583-1.049,18.902c-20.302-0.382-40.605-0.764-60.907-1.146c2.039-6.846,4.34-13.642,6.902-20.372   C117.085,78.648,135.436,79.52,153.787,80.392z M152.901,113.652c0.255,6.331,0.75,12.665,1.485,18.988   c-23.624,0.654-47.248,1.307-70.872,1.961c1.115-6.973,2.494-13.923,4.136-20.836C109.4,113.728,131.151,113.69,152.901,113.652z    M156.463,146.965c1.096,6.298,2.43,12.574,4.002,18.814c-26.793,1.897-53.585,3.795-80.378,5.692   c0.185-7.004,0.635-14.013,1.35-21.012C106.445,149.295,131.454,148.13,156.463,146.965z M164.441,179.873   c1.93,6.177,4.096,12.308,6.498,18.378c-29.786,3.333-59.573,6.665-89.359,9.998c-0.751-6.939-1.236-13.909-1.453-20.896   C108.232,184.859,136.337,182.366,164.441,179.873z M176.796,211.917c2.758,5.97,5.751,11.869,8.978,17.683   c-32.584,4.943-65.169,9.887-97.753,14.83c-1.694-6.777-3.119-13.614-4.275-20.495   C114.763,219.929,145.779,215.923,176.796,211.917z M167.446,19.984c-1.681,4.566-3.213,9.176-4.606,13.823   c-13.287-1.763-26.573-3.527-39.86-5.29c2.971-4.841,6.09-9.621,9.365-14.332C144.045,16.118,155.746,18.052,167.446,19.984z    M97.641,274.956c-1.933-5.037-3.701-10.125-5.315-15.253c33.723-5.687,67.447-11.374,101.17-17.061   c2.749,4.359,5.632,8.663,8.655,12.902C167.314,262.014,132.477,268.485,97.641,274.956z" fill="#D80027"/>
</g>
<g>
</g>
<g>
</g>
<g>
</g>
<g>
</g>
<g>
</g>
<g>
</g>
<g>
</g>
<g>
</g>
<g>
</g>
<g>
</g>
<g>
</g>
<g>
</g>
<g>
</g>
<g>
</g>
<g>
</g>
</svg>
